<svg width="96" height="24" viewBox="0 0 96 24" fill="none" xmlns="http://www.w3.org/2000/svg">
<path d="M17.5062 0.452271C8.01662 0.452271 0.319336 5.3291 0.319336 11.3301C0.319336 17.3312 8.01662 22.683 17.5062 22.683C26.9958 22.683 34.6931 17.347 34.6931 11.3301C34.6931 5.31326 26.9958 0.452271 17.5062 0.452271Z" fill="#00BCFF"/>
<path d="M11.9053 7.97272C11.8893 7.98856 11.7293 8.16272 11.8413 8.30523C12.1133 8.63774 12.9295 8.82775 13.7616 8.65358C14.2577 8.54274 14.8818 8.05189 15.5059 7.56104C16.178 7.03852 16.8341 6.51601 17.4902 6.31017C18.1943 6.08849 18.6424 6.1835 18.9465 6.2785C19.2665 6.3735 19.6506 6.59517 20.2747 7.03852C21.4269 7.89355 26.0516 11.8995 26.8678 12.5804C27.5079 12.2954 30.5804 11.0603 34.469 10.2211C34.133 8.16273 32.8848 6.21516 30.9645 4.67928C28.292 5.78765 24.8194 6.45267 21.6189 4.91679C21.6029 4.91679 19.8746 4.10926 18.1783 4.14093C15.6499 4.20427 14.5457 5.28097 13.3935 6.43684L11.9053 7.97272Z" fill="white"/>
<path d="M26.6612 13.0095C26.6132 12.962 21.2203 8.29102 19.9881 7.38849C19.284 6.86598 18.8839 6.72347 18.4678 6.67597C18.2598 6.6443 17.9558 6.6918 17.7477 6.7393C17.1716 6.89764 16.4355 7.38849 15.7794 7.89518C15.0913 8.43353 14.4512 8.94021 13.8591 9.06688C13.0909 9.24105 12.1628 9.03521 11.7307 8.75021C11.5547 8.63937 11.4427 8.49686 11.3787 8.37019C11.2186 8.00602 11.5067 7.721 11.5547 7.6735L13.0429 6.07429C13.219 5.90011 13.395 5.72594 13.571 5.5676C13.0909 5.63094 12.6429 5.75761 12.2108 5.86844C11.6667 6.01095 11.1546 6.15345 10.6265 6.15345C10.4025 6.15345 9.2343 5.96345 9.01027 5.90011C7.66604 5.53593 6.12979 5.18759 4.36949 4.36423C2.25714 5.91594 0.880913 7.83184 0.464844 9.98524C0.768894 10.0644 1.56903 10.2386 1.77706 10.2861C6.56186 11.347 8.05011 12.4237 8.32215 12.6453C8.6102 12.3287 9.04227 12.1228 9.50635 12.1228C10.0344 12.1228 10.5145 12.392 10.8026 12.7878C11.0746 12.5662 11.4587 12.392 11.9388 12.392C12.1628 12.392 12.3868 12.4395 12.6269 12.5028C13.171 12.6928 13.443 13.0412 13.587 13.3579C13.7631 13.2787 13.9871 13.2153 14.2591 13.2153C14.5152 13.2153 14.7872 13.2787 15.0593 13.3895C15.9394 13.7695 16.0834 14.6246 16.0034 15.2737C16.0674 15.2737 16.1315 15.2579 16.1955 15.2579C17.2356 15.2579 18.0998 16.0971 18.0998 17.1421C18.0998 17.4588 18.0198 17.7597 17.8757 18.0288C18.1638 18.1872 18.8839 18.5514 19.524 18.4722C20.0361 18.4089 20.2281 18.2347 20.2921 18.1397C20.3402 18.0763 20.3882 17.9972 20.3402 17.9338L18.9959 16.4455C18.9959 16.4455 18.7719 16.2396 18.8519 16.1604C18.9319 16.0813 19.0599 16.1921 19.156 16.2713C19.8441 16.8413 20.6762 17.6963 20.6762 17.6963C20.6922 17.7122 20.7402 17.8072 21.0603 17.8705C21.3323 17.918 21.7964 17.8863 22.1325 17.6172C22.2125 17.5538 22.2925 17.4588 22.3725 17.3797L22.3565 17.3955C22.7085 16.9521 22.3245 16.5088 22.3245 16.5088L20.7402 14.7512C20.7402 14.7512 20.5162 14.5454 20.5962 14.4662C20.6602 14.3871 20.8042 14.4979 20.9162 14.5771C21.4123 14.9887 22.1164 15.6854 22.8046 16.3505C22.9326 16.4455 23.5247 16.8096 24.3248 16.3029C24.8049 15.9863 24.9009 15.6063 24.8849 15.3213C24.8529 14.9412 24.5489 14.6721 24.5489 14.6721L22.3885 12.5345C22.3885 12.5345 22.1645 12.3445 22.2445 12.2495C22.3085 12.1703 22.4525 12.2812 22.5485 12.3603C23.2366 12.9303 25.0929 14.6087 25.0929 14.6087C25.125 14.6246 25.7651 15.0837 26.5492 14.5771C26.8372 14.4029 27.0133 14.1337 27.0293 13.817C27.0453 13.3262 26.6612 13.0095 26.6612 13.0095Z" fill="white"/>
<path d="M16.2095 15.7218C15.8734 15.7218 15.5054 15.9118 15.4573 15.8801C15.4253 15.8643 15.4733 15.7376 15.5054 15.6584C15.5374 15.5793 15.9694 14.2809 14.9133 13.8217C14.0971 13.4734 13.585 13.8692 13.425 14.0434C13.377 14.0909 13.361 14.0909 13.361 14.0275C13.345 13.79 13.233 13.1567 12.5289 12.935C11.5207 12.6342 10.8646 13.3309 10.7046 13.5842C10.6245 13.0142 10.1445 12.5708 9.55236 12.5708C8.89625 12.5708 8.38417 13.0933 8.36816 13.7267C8.36816 14.3759 8.89625 14.8826 9.53636 14.8826C9.85641 14.8826 10.1445 14.7559 10.3525 14.5659C10.3525 14.5659 10.3685 14.5817 10.3525 14.5976C10.3045 14.8826 10.2085 15.9276 11.3127 16.3551C11.7607 16.5293 12.1288 16.4026 12.4488 16.1809C12.5449 16.1176 12.5609 16.1493 12.5449 16.2284C12.4969 16.4976 12.5609 17.0676 13.377 17.4002C14.0011 17.6535 14.3692 17.4002 14.6092 17.1785C14.7212 17.0835 14.7372 17.0993 14.7532 17.2418C14.7852 18.0177 15.4413 18.6352 16.2255 18.6352C17.0416 18.6352 17.6977 17.986 17.6977 17.1785C17.6817 16.3868 17.0256 15.7376 16.2095 15.7218Z" fill="white"/>
<path d="M17.5069 0.0115967C7.8413 0.0115967 0 5.09426 0 11.3486C0 11.507 0 11.9503 0 12.0137C0 18.6322 6.84914 23.9999 17.5069 23.9999C28.1647 23.9999 35.0138 18.6322 35.0138 12.0137V11.3486C35.0138 5.09426 27.1725 0.0115967 17.5069 0.0115967ZM34.2137 10.0819C30.4051 10.9211 27.5726 12.1403 26.8525 12.4412C25.1882 11.0003 21.3475 7.70685 20.3074 6.93099C19.7153 6.48764 19.3152 6.25014 18.9472 6.15513C18.7871 6.10763 18.5631 6.06013 18.275 6.06013C18.003 6.06013 17.7309 6.10763 17.4269 6.20263C16.7548 6.40847 16.0827 6.94682 15.4426 7.45351V7.46934C14.8345 7.94436 14.2104 8.4352 13.7463 8.54604C13.5383 8.59354 13.3302 8.60938 13.1222 8.60938C12.5941 8.60938 12.114 8.45104 11.938 8.22936C11.906 8.1977 11.922 8.13436 12.002 8.03936L12.018 8.02353L13.4742 6.47181C14.6264 5.33177 15.6986 4.2709 18.195 4.20757C18.243 4.20757 18.275 4.20757 18.323 4.20757C19.8753 4.20757 21.4276 4.88842 21.5876 4.96759C23.0438 5.66428 24.5321 6.02846 26.0523 6.02846C27.6206 6.02846 29.2369 5.64845 30.9331 4.87259C32.6774 6.36097 33.8616 8.1502 34.2137 10.0819ZM17.5069 0.67662C22.6438 0.67662 27.2365 2.13333 30.325 4.42924C28.8368 5.06259 27.4126 5.39511 26.0363 5.39511C24.6281 5.39511 23.2199 5.0626 21.8596 4.39757C21.7956 4.36591 20.0833 3.55838 18.291 3.55838C18.243 3.55838 18.195 3.55838 18.147 3.55838C16.0507 3.60588 14.8825 4.33424 14.0823 4.98342C13.3142 4.99926 12.6421 5.18927 12.05 5.34761C11.5219 5.49011 11.0738 5.61678 10.6258 5.61678C10.4497 5.61678 10.1137 5.60095 10.0817 5.60095C9.56959 5.58511 7.00917 4.96759 4.96083 4.20757C8.06534 2.03833 12.5301 0.67662 17.5069 0.67662ZM4.38473 4.65092C6.51308 5.52178 9.10552 6.1868 9.93765 6.2343C10.1617 6.25014 10.4017 6.2818 10.6578 6.2818C11.2019 6.2818 11.746 6.12346 12.274 5.98096C12.5781 5.90179 12.9302 5.80679 13.2822 5.72762C13.1862 5.82262 13.0902 5.91762 12.9942 6.01262L11.5059 7.59601C11.3939 7.70685 11.1379 8.02352 11.2979 8.40354C11.3619 8.56188 11.5059 8.70438 11.6819 8.83105C12.034 9.06856 12.6741 9.2269 13.2502 9.2269C13.4742 9.2269 13.6823 9.21107 13.8743 9.16356C14.4984 9.02106 15.1545 8.51438 15.8426 7.96019C16.3867 7.53268 17.1709 6.97849 17.779 6.82015C17.955 6.77265 18.147 6.74098 18.323 6.74098C18.3711 6.74098 18.4191 6.74098 18.4671 6.75682C18.8671 6.80432 19.2512 6.94682 19.9233 7.45351C21.1395 8.35604 26.5324 13.027 26.5804 13.0745C26.5804 13.0745 26.9325 13.3754 26.9005 13.8662C26.8845 14.1354 26.7404 14.3729 26.4684 14.5471C26.2444 14.6896 26.0043 14.7687 25.7643 14.7687C25.3962 14.7687 25.1562 14.5946 25.1402 14.5946C25.1242 14.5787 23.2679 12.9004 22.5958 12.3303C22.4837 12.2353 22.3877 12.1562 22.2757 12.1562C22.2117 12.1562 22.1637 12.1878 22.1317 12.2195C22.0197 12.3462 22.1477 12.5362 22.2917 12.647L24.4521 14.8004C24.4521 14.8004 24.7241 15.0538 24.7561 15.3863C24.7721 15.7346 24.5961 16.0355 24.244 16.273C23.988 16.4471 23.7319 16.5263 23.4759 16.5263C23.1398 16.5263 22.9158 16.3838 22.8678 16.3363L22.5638 16.0355C22.0037 15.4813 21.4116 14.9112 20.9795 14.5629C20.8675 14.4837 20.7715 14.4046 20.6594 14.4046C20.6114 14.4046 20.5634 14.4204 20.5154 14.4679C20.4674 14.5154 20.4354 14.6104 20.5474 14.7846C20.5954 14.8479 20.6594 14.9112 20.6594 14.9112L22.2277 16.6688C22.2437 16.6846 22.5478 17.0488 22.2597 17.413L22.1957 17.4763C22.1477 17.5238 22.0997 17.5713 22.0517 17.6188C21.7796 17.8405 21.4276 17.8563 21.2835 17.8563C21.2035 17.8563 21.1395 17.8563 21.0755 17.8405C20.9155 17.8088 20.8195 17.7772 20.7715 17.7138L20.7555 17.698C20.6754 17.603 19.8753 16.8113 19.2192 16.273C19.1392 16.1938 19.0272 16.1146 18.9151 16.1146C18.8671 16.1146 18.8191 16.1305 18.7711 16.178C18.6431 16.3205 18.8351 16.5263 18.9151 16.6055L20.2594 18.078C20.2594 18.0939 20.2434 18.1255 20.2114 18.173C20.1634 18.2364 20.0033 18.3947 19.5072 18.458C19.4432 18.458 19.3952 18.4739 19.3312 18.4739C18.8351 18.4739 18.291 18.2364 18.019 18.0939C18.147 17.8247 18.211 17.5397 18.211 17.2547C18.211 16.1621 17.3149 15.2754 16.2107 15.2754C16.1947 15.2754 16.1627 15.2754 16.1467 15.2754C16.1787 14.7687 16.1147 13.8345 15.1225 13.407C14.8345 13.2804 14.5624 13.217 14.2904 13.217C14.0823 13.217 13.8743 13.2487 13.6823 13.3279C13.4742 12.932 13.1382 12.647 12.7061 12.5045C12.4661 12.4253 12.226 12.3778 11.986 12.3778C11.5699 12.3778 11.2019 12.5045 10.8658 12.7262C10.5458 12.3303 10.0657 12.0928 9.55359 12.0928C9.10551 12.0928 8.67344 12.267 8.35339 12.5837C7.93732 12.267 6.27304 11.222 1.84031 10.2244C1.63227 10.1769 1.15219 10.0344 0.848141 9.95526C1.2322 7.94436 2.49642 6.1393 4.38473 4.65092ZM12.6101 16.0988L12.5621 16.0513H12.5141C12.4821 16.0513 12.4341 16.0671 12.3861 16.0988C12.162 16.2571 11.938 16.3363 11.73 16.3363C11.6019 16.3363 11.4899 16.3046 11.3619 16.273C10.3377 15.8771 10.4177 14.9113 10.4657 14.6262C10.4657 14.5629 10.4657 14.5154 10.4177 14.4837L10.3377 14.4204L10.2737 14.4837C10.0657 14.6737 9.80963 14.7846 9.53759 14.7846C8.94549 14.7846 8.46541 14.3096 8.46541 13.7237C8.46541 13.1379 8.94549 12.6628 9.53759 12.6628C10.0657 12.6628 10.5298 13.0587 10.5938 13.5812L10.6258 13.8662L10.7858 13.6287C10.8018 13.597 11.2339 12.9479 12.034 12.9479C12.178 12.9479 12.3381 12.9795 12.4981 13.027C13.1382 13.217 13.2342 13.787 13.2502 14.0246C13.2662 14.1671 13.3622 14.1671 13.3782 14.1671C13.4262 14.1671 13.4742 14.1354 13.5062 14.1037C13.6183 13.9771 13.8903 13.7712 14.2904 13.7712C14.4824 13.7712 14.6744 13.8187 14.8825 13.8979C15.8906 14.3254 15.4266 15.5921 15.4266 15.6079C15.3466 15.8138 15.3306 15.9088 15.4106 15.9563L15.4426 15.9721H15.4746C15.5226 15.9721 15.5706 15.9563 15.6666 15.9246C15.8106 15.8771 16.0027 15.8138 16.2107 15.8138C16.9628 15.8296 17.5869 16.4313 17.5869 17.1755C17.5869 17.9197 16.9628 18.5372 16.2107 18.5372C15.4746 18.5372 14.8665 17.9672 14.8345 17.2388C14.8345 17.1755 14.8185 17.0171 14.6904 17.0171C14.6264 17.0171 14.5784 17.0488 14.5304 17.0963C14.3704 17.2388 14.1624 17.3972 13.8583 17.3972C13.7143 17.3972 13.5703 17.3655 13.4102 17.3022C12.6261 16.9855 12.6101 16.463 12.6421 16.2413C12.6421 16.1938 12.6581 16.1463 12.6101 16.0988ZM17.5069 21.989C8.20937 21.989 0.672112 17.223 0.672112 11.3328C0.672112 11.0953 0.688115 10.8578 0.72012 10.6203C0.800133 10.6361 1.53626 10.8103 1.68028 10.8419C6.20903 11.8395 7.71328 12.8687 7.96933 13.0745C7.88931 13.2804 7.8413 13.502 7.8413 13.7237C7.8413 14.6579 8.60943 15.4021 9.53759 15.4021C9.6496 15.4021 9.74562 15.3863 9.85764 15.3704C10.0017 16.0513 10.4497 16.5738 11.1379 16.843C11.3459 16.9221 11.5379 16.9538 11.746 16.9538C11.874 16.9538 12.002 16.938 12.13 16.9063C12.258 17.223 12.5461 17.6188 13.1862 17.888C13.4102 17.983 13.6343 18.0305 13.8583 18.0305C14.0343 18.0305 14.2104 17.9988 14.3704 17.9355C14.6744 18.6797 15.4106 19.1706 16.2267 19.1706C16.7708 19.1706 17.2829 18.9489 17.6669 18.5689C17.987 18.743 18.6751 19.0756 19.3632 19.0756C19.4592 19.0756 19.5393 19.0756 19.6193 19.0597C20.3074 18.9806 20.6274 18.7114 20.7715 18.5055C20.8035 18.4739 20.8195 18.4264 20.8355 18.3947C20.9955 18.4422 21.1715 18.4739 21.3796 18.4739C21.7476 18.4739 22.1157 18.3472 22.4837 18.0939C22.8358 17.8405 23.0918 17.4763 23.1238 17.1597V17.1438C23.2519 17.1755 23.3639 17.1755 23.4919 17.1755C23.876 17.1755 24.26 17.0647 24.6121 16.8271C25.3162 16.368 25.4282 15.7821 25.4282 15.4021C25.5563 15.4338 25.6683 15.4338 25.7963 15.4338C26.1644 15.4338 26.5164 15.3229 26.8525 15.1171C27.2845 14.8479 27.5406 14.4204 27.5886 13.9295C27.6206 13.597 27.5246 13.2645 27.3485 12.9795C28.5167 12.4887 31.1892 11.5228 34.3257 10.8103C34.3417 10.9845 34.3417 11.1586 34.3417 11.3486C34.3417 17.223 26.8045 21.989 17.5069 21.989Z" fill="#0A0080"/>
<path d="M95.0398 3.49221C94.3997 2.70052 93.4395 2.30467 92.1433 2.30467C90.8471 2.30467 89.887 2.70052 89.2469 3.49221C88.6067 4.2839 88.2867 5.2181 88.2867 6.27897C88.2867 7.35567 88.6067 8.3057 89.2469 9.08156C89.887 9.85742 90.8471 10.2533 92.1433 10.2533C93.4395 10.2533 94.3997 9.85742 95.0398 9.08156C95.6799 8.3057 96 7.3715 96 6.27897C96 5.18643 95.6799 4.2839 95.0398 3.49221ZM93.4715 8.02069C93.1675 8.43237 92.7194 8.62238 92.1433 8.62238C91.5672 8.62238 91.1192 8.41654 90.8151 8.02069C90.5111 7.60901 90.351 7.03899 90.351 6.2948C90.351 5.55061 90.5111 4.9806 90.8151 4.56892C91.1192 4.17307 91.5672 3.96723 92.1433 3.96723C92.7194 3.96723 93.1675 4.17307 93.4715 4.56892C93.7756 4.96476 93.9356 5.55061 93.9356 6.2948C93.9356 7.03899 93.7756 7.60901 93.4715 8.02069ZM78.7971 2.82719C78.157 2.51052 77.4209 2.33634 76.5887 2.33634C75.3085 2.33634 74.4124 2.66885 73.8843 3.31804C73.5482 3.74555 73.3722 4.2839 73.3242 4.93309H75.2285C75.2765 4.64808 75.3725 4.41058 75.5166 4.25224C75.7086 4.03056 76.0447 3.90389 76.5247 3.90389C76.9408 3.90389 77.2609 3.96723 77.4849 4.07807C77.7089 4.1889 77.805 4.41058 77.805 4.71142C77.805 4.96476 77.6609 5.15477 77.3729 5.2656C77.2128 5.32894 76.9568 5.39228 76.5887 5.43978L75.9166 5.51895C75.1485 5.61395 74.5724 5.77229 74.1723 5.99396C73.4522 6.40564 73.0842 7.07066 73.0842 7.98902C73.0842 8.70155 73.3082 9.2399 73.7563 9.63575C74.2043 10.0158 74.7804 10.1899 75.4686 10.2216C79.7893 10.4116 79.7413 7.97319 79.7733 7.46651V4.66391C79.7573 3.77722 79.4372 3.1597 78.7971 2.82719ZM77.7889 7.0865C77.7729 7.73568 77.5809 8.19487 77.2289 8.43237C76.8608 8.68571 76.4607 8.79655 76.0287 8.79655C75.7566 8.79655 75.5166 8.71738 75.3405 8.57488C75.1485 8.43237 75.0525 8.17903 75.0525 7.84652C75.0525 7.46651 75.2125 7.19733 75.5166 7.02316C75.7086 6.91232 75.9966 6.83315 76.4287 6.75398L76.8768 6.67481C77.1008 6.62731 77.2769 6.57981 77.4049 6.53231C77.5329 6.48481 77.6609 6.42147 77.7889 6.3423V7.0865ZM68.9555 4.01473C69.4516 4.01473 69.8036 4.17307 70.0437 4.47391C70.2037 4.69559 70.2997 4.94892 70.3477 5.23393H72.4761C72.364 4.17307 71.98 3.42888 71.3559 3.0172C70.7158 2.60552 69.8996 2.38384 68.9075 2.38384C67.7393 2.38384 66.8111 2.73219 66.155 3.44471C65.4829 4.15723 65.1628 5.15477 65.1628 6.43731C65.1628 7.56151 65.4669 8.49571 66.075 9.20823C66.6831 9.92075 67.6113 10.2691 68.8915 10.2691C70.1717 10.2691 71.1318 9.84159 71.7879 8.98656C72.204 8.46404 72.4281 7.89402 72.4761 7.30817H70.3317C70.2837 7.70401 70.1717 8.02069 69.9636 8.27403C69.7556 8.51154 69.4196 8.63821 68.9235 8.63821C68.2354 8.63821 67.7713 8.32154 67.5152 7.70401C67.3712 7.3715 67.3072 6.92816 67.3072 6.38981C67.3072 5.85146 67.3712 5.36061 67.5152 5.01226C67.7713 4.34724 68.2514 4.01473 68.9555 4.01473ZM64.5707 2.36801C60.202 2.36801 60.4581 6.1998 60.4581 6.1998V10.0949H62.4424V6.45314C62.4424 5.85146 62.5224 5.40811 62.6664 5.1231C62.9385 4.61642 63.4666 4.36307 64.2667 4.36307C64.3307 4.36307 64.4107 4.36307 64.5067 4.37891C64.6028 4.37891 64.7148 4.39474 64.8428 4.41058V2.41551C64.7628 2.41551 64.6988 2.39968 64.6668 2.39968C64.6348 2.36801 64.6028 2.36801 64.5707 2.36801ZM58.8738 3.82472C58.5377 3.31804 58.0897 2.95386 57.5776 2.71635C57.0495 2.47885 56.4574 2.36801 55.8013 2.36801C54.6971 2.36801 53.801 2.71635 53.1128 3.39721C52.4247 4.0939 52.0727 5.0756 52.0727 6.37397C52.0727 7.75152 52.4567 8.74905 53.2249 9.36657C53.993 9.98409 54.8731 10.2849 55.8813 10.2849C57.0975 10.2849 58.0417 9.92075 58.7138 9.1924C59.0818 8.81238 59.3059 8.43237 59.4019 8.06819H57.2895C57.2095 8.17903 57.1135 8.28987 57.0175 8.36904C56.7294 8.59071 56.3614 8.66988 55.9133 8.66988C55.4972 8.66988 55.1612 8.60654 54.8571 8.41654C54.361 8.11569 54.089 7.60901 54.057 6.86482H59.5459C59.5459 6.21564 59.5299 5.72478 59.4819 5.37644C59.3859 4.77475 59.1778 4.26807 58.8738 3.82472ZM54.089 5.55061C54.153 5.05976 54.329 4.67975 54.6171 4.39474C54.8891 4.10973 55.2892 3.96723 55.8013 3.96723C56.2654 3.96723 56.6494 4.0939 56.9695 4.36307C57.2895 4.63225 57.4496 5.02809 57.4976 5.53478H54.089V5.55061ZM48.12 2.33634C47.1919 2.33634 46.4077 2.73219 45.8636 3.38138C45.3515 2.74802 44.5674 2.33634 43.6073 2.33634C41.6709 2.33634 40.4227 3.74555 40.4227 5.61395V10.0791H42.231V5.56645C42.231 4.74309 42.7911 4.17307 43.6073 4.17307C44.8075 4.17307 44.9195 5.15477 44.9195 5.56645V10.0791H46.7278V5.56645C46.7278 4.74309 47.3039 4.17307 48.104 4.17307C49.3042 4.17307 49.4322 5.15477 49.4322 5.56645V10.0791H51.2405V5.61395C51.2725 3.69805 50.1043 2.33634 48.12 2.33634ZM85.7103 1.38631V3.49221C85.4862 3.14387 85.1982 2.85886 84.8461 2.66885C84.4941 2.47885 84.094 2.36801 83.6299 2.36801C82.6377 2.36801 81.8536 2.73219 81.2615 3.46055C80.6694 4.1889 80.3654 5.24977 80.3654 6.51648C80.3654 7.62485 80.6694 8.52738 81.2615 9.22406C81.8696 9.92075 83.0378 10.2374 84.094 10.2374C87.7426 10.2374 87.7106 7.134 87.7106 7.134V0.00876445C87.7106 0.00876445 85.7103 -0.197074 85.7103 1.38631ZM85.3262 8.03653C85.0382 8.44821 84.6061 8.65405 84.062 8.65405C83.5179 8.65405 83.0858 8.44821 82.8138 8.03653C82.5417 7.62485 82.3977 7.02316 82.3977 6.32647C82.3977 5.69311 82.5257 5.15477 82.7978 4.72725C83.0698 4.29974 83.4859 4.07807 84.062 4.07807C84.4461 4.07807 84.7661 4.1889 85.0542 4.42641C85.5182 4.82225 85.7583 5.51894 85.7583 6.43731C85.7743 7.08649 85.6143 7.62485 85.3262 8.03653ZM44.6154 13.0875C42.9832 13.0084 42.151 13.4042 41.6229 13.8C40.8868 14.3542 40.4227 15.1934 40.4227 16.5235V23.3479H41.3829C41.6389 23.3479 41.895 23.2529 42.087 23.0945C42.295 22.9045 42.4071 22.667 42.4071 22.382V19.8169C42.6471 20.2128 42.9511 20.5136 43.3352 20.7036C43.7033 20.8778 44.1353 20.9569 44.6154 20.9569C45.5276 20.9569 46.2797 20.5928 46.8558 19.8802C47.4319 19.1361 47.7359 18.1702 47.7359 16.9827C47.7359 15.7793 47.4639 14.9401 46.7918 14.1326C46.2797 13.4834 45.4636 13.1192 44.6154 13.0875ZM45.3035 18.6769C45.0155 19.0727 44.6154 19.2786 44.1033 19.2786C43.5593 19.2786 43.1432 19.0885 42.8551 18.6769C42.5671 18.3127 42.4231 17.7743 42.4231 17.0618C42.4231 16.286 42.5511 15.7159 42.8231 15.3518C43.1112 14.9559 43.5272 14.7501 44.0553 14.7501C44.5834 14.7501 45.0155 14.9559 45.3035 15.3518C45.5916 15.7476 45.7356 16.3176 45.7356 17.0618C45.7356 17.7427 45.5916 18.281 45.3035 18.6769ZM61.6583 13.7842C60.9861 13.2775 60.298 13.0084 59.1138 13.04C57.9136 13.0717 57.0335 13.4042 56.4894 14.1326C55.9453 14.8609 55.6733 15.8109 55.6733 16.9827C55.6733 17.9802 55.8813 18.8035 56.2814 19.4211C56.6974 20.0386 57.1775 20.4661 57.7536 20.6878C58.3297 20.9094 58.9058 20.9569 59.4819 20.8303C60.058 20.7036 60.5221 20.3711 60.8741 19.8327V20.3078C60.8421 20.9094 60.6821 21.3686 60.4261 21.6695C60.17 21.9703 59.882 22.1603 59.5619 22.2237C59.2419 22.287 58.9378 22.2553 58.6178 22.1128C58.2977 21.9703 58.0737 21.7645 57.9136 21.4953H55.8173C56.3614 23.1103 57.3375 23.8229 59.0818 23.9337C61.8983 24.1395 62.8105 21.7645 62.8105 20.4978V16.4918C62.8425 15.1934 62.3944 14.3384 61.6583 13.7842ZM60.8261 17.7268C60.7461 18.1702 60.6341 18.5027 60.4581 18.7085C60.09 19.1994 59.5299 19.3736 58.7778 19.2311C58.0097 19.0885 57.6256 18.3602 57.6256 17.0618C57.6256 16.4601 57.7376 15.9218 57.9616 15.4468C58.1857 14.9718 58.6338 14.7342 59.2739 14.7342C59.7539 14.7342 60.122 14.9084 60.362 15.2409C60.6181 15.5893 60.7621 15.9693 60.8421 16.4126C60.9061 16.8401 60.9061 17.2835 60.8261 17.7268ZM53.977 13.5942C53.3369 13.2775 52.6008 13.1034 51.7686 13.1034C50.4884 13.1034 49.5923 13.4359 49.0642 14.0851C48.7281 14.5126 48.5521 15.0509 48.5041 15.7001H50.4084C50.4564 15.4151 50.5524 15.1776 50.6964 15.0193C50.8885 14.7976 51.2245 14.6709 51.7046 14.6709C52.1207 14.6709 52.4407 14.7342 52.6648 14.8451C52.8888 14.9559 52.9848 15.1776 52.9848 15.4784C52.9848 15.7318 52.8408 15.9218 52.5527 16.0326C52.3927 16.096 52.1367 16.1593 51.7686 16.2068L51.0965 16.286C50.3284 16.381 49.7363 16.5393 49.3522 16.761C48.6321 17.1727 48.264 17.8377 48.264 18.756C48.264 19.4686 48.4881 20.0069 48.9361 20.4028C49.3842 20.7828 49.9603 20.9569 50.6484 20.9886C54.9531 21.1786 54.9051 18.7402 54.9531 18.2335V15.4309C54.9531 14.5284 54.6331 13.9109 53.977 13.5942ZM52.9688 17.8535C52.9528 18.5027 52.7608 18.9619 52.4087 19.1994C52.0407 19.4527 51.6406 19.5636 51.2085 19.5636C50.9365 19.5636 50.7124 19.4844 50.5204 19.3419C50.3284 19.1994 50.2324 18.946 50.2324 18.6135C50.2324 18.2335 50.3924 17.9643 50.6964 17.7902C50.8885 17.6793 51.1765 17.6002 51.6086 17.521L52.0567 17.4418C52.2807 17.3943 52.4567 17.3627 52.5848 17.2993C52.7128 17.2518 52.8408 17.1885 52.9688 17.1093V17.8535ZM70.3317 14.2117C69.6916 13.42 68.7314 13.0242 67.4352 13.0242C66.139 13.0242 65.1788 13.42 64.5387 14.2117C63.8986 15.0034 63.5786 15.9376 63.5786 16.9985C63.5786 18.0594 63.8986 19.0252 64.5387 19.8011C65.1788 20.5769 66.139 20.9569 67.4352 20.9569C68.7314 20.9569 69.6916 20.5611 70.3317 19.8011C70.9718 19.0252 71.2919 18.091 71.2919 16.9985C71.2919 15.9059 70.9718 15.0034 70.3317 14.2117ZM68.7634 18.7244C68.4594 19.1361 68.0113 19.3261 67.4352 19.3261C66.8591 19.3261 66.4111 19.1202 66.107 18.7244C65.7869 18.3127 65.6429 17.7427 65.6429 16.9985C65.6429 16.2543 65.803 15.6843 66.107 15.2726C66.4111 14.8767 66.8591 14.6709 67.4352 14.6709C68.0113 14.6709 68.4594 14.8767 68.7634 15.2726C69.0675 15.6684 69.2275 16.2543 69.2275 16.9985C69.2275 17.7585 69.0675 18.3285 68.7634 18.7244Z" fill="white"/>
</svg>
